# Blender 5.1.1
# www.blender.org
mtllib powerup-hp.mtl
o HealthUp.001_Material02_0
v -0.161963 0.323926 -0.000000
v -0.161963 0.161781 -0.000000
v 0.161795 0.161963 -0.000000
v 0.161963 0.323926 0.000000
v 0.161963 0.161781 -0.230703
v -0.161963 0.161781 -0.230703
v -0.161963 0.323926 -0.230703
v 0.161963 0.323926 -0.230703
v -0.161963 -0.323926 -0.000000
v -0.161963 -0.323926 -0.230703
v 0.161963 -0.323926 -0.230703
v 0.161963 -0.323926 -0.000000
v 0.161795 0.161963 -0.000000
v 0.161963 0.161781 -0.230703
v 0.161963 0.323926 -0.230703
v 0.161963 0.323926 0.000000
v -0.161963 0.161781 -0.230703
v -0.161963 0.161781 -0.000000
v -0.161963 0.323926 -0.000000
v -0.161963 0.323926 -0.230703
v 0.161963 -0.323926 -0.000000
v 0.161963 -0.323926 -0.230703
v 0.161795 -0.161963 -0.230703
v 0.161963 -0.161781 -0.000000
v -0.161963 -0.323926 -0.230703
v -0.161963 -0.161781 -0.230703
v 0.161795 -0.161963 -0.230703
v 0.161963 -0.323926 -0.230703
v -0.161963 -0.323926 -0.000000
v 0.161963 -0.323926 -0.000000
v 0.161963 -0.161781 -0.000000
v -0.161963 -0.161781 -0.000000
v 0.161963 0.323926 -0.230703
v -0.161963 0.323926 -0.230703
v -0.161963 0.323926 -0.000000
v 0.161963 0.323926 0.000000
v -0.161963 0.161781 -0.000000
v -0.161963 0.161781 -0.230703
v -0.323926 0.161963 -0.230703
v -0.323926 0.161963 -0.000000
v 0.161795 -0.161963 -0.230703
v 0.323926 0.161963 -0.230703
v 0.323926 -0.161963 -0.230703
v -0.323926 0.161963 -0.000000
v -0.323926 0.161963 -0.230703
v -0.323926 -0.161963 -0.230703
v -0.323926 -0.161963 -0.000000
v 0.161963 -0.161781 -0.000000
v 0.161795 -0.161963 -0.230703
v 0.323926 -0.161963 -0.230703
v 0.323926 -0.161963 -0.000000
v 0.161963 0.161781 -0.230703
v 0.161795 0.161963 -0.000000
v 0.323926 0.161963 -0.000000
v 0.323926 0.161963 -0.230703
v -0.323926 0.161963 -0.000000
v -0.323926 -0.161963 -0.000000
v -0.161963 -0.161781 -0.000000
v -0.161963 0.161781 -0.000000
v -0.323926 0.161963 -0.230703
v -0.161963 0.161781 -0.230703
v -0.161963 -0.161781 -0.230703
v -0.323926 -0.161963 -0.230703
v -0.323926 -0.161963 -0.000000
v -0.323926 -0.161963 -0.230703
v -0.161963 -0.161781 -0.230703
v -0.161963 -0.161781 -0.000000
v 0.323926 -0.161963 -0.230703
v 0.323926 0.161963 -0.230703
v 0.323926 0.161963 -0.000000
v 0.323926 -0.161963 -0.000000
v 0.161963 -0.161781 -0.000000
v 0.161795 0.161963 -0.000000
v -0.161963 0.161781 -0.000000
v -0.161963 -0.161781 -0.000000
v -0.161963 -0.161781 -0.230703
v -0.161963 0.161781 -0.230703
v 0.161963 0.161781 -0.230703
v 0.161795 -0.161963 -0.230703
v 0.323926 0.161963 -0.000000
v 0.161795 0.161963 -0.000000
v 0.161963 -0.161781 -0.000000
v 0.323926 -0.161963 -0.000000
v -0.161963 -0.161781 -0.000000
v -0.161963 -0.161781 -0.230703
v -0.161963 -0.323926 -0.230703
v -0.161963 -0.323926 -0.000000
v 0.367375 0.782976 -0.035233
v 0.367375 0.670357 -0.035233
v 0.592244 0.670484 -0.035233
v 0.592361 0.782976 -0.035233
v 0.592361 0.670357 -0.195470
v 0.367375 0.670357 -0.195470
v 0.367375 0.782976 -0.195470
v 0.592361 0.782976 -0.195470
v 0.367375 0.333006 -0.035233
v 0.367375 0.333006 -0.195470
v 0.592361 0.333006 -0.195470
v 0.592361 0.333006 -0.035233
v 0.592244 0.670484 -0.035233
v 0.592361 0.670357 -0.195470
v 0.592361 0.782976 -0.195470
v 0.592361 0.782976 -0.035233
v 0.367375 0.670357 -0.195470
v 0.367375 0.670357 -0.035233
v 0.367375 0.782976 -0.035233
v 0.367375 0.782976 -0.195470
v 0.592361 0.333006 -0.035233
v 0.592361 0.333006 -0.195470
v 0.592244 0.445498 -0.195470
v 0.592361 0.445625 -0.035233
v 0.367375 0.333006 -0.195470
v 0.367375 0.445625 -0.195470
v 0.592244 0.445498 -0.195470
v 0.592361 0.333006 -0.195470
v 0.367375 0.333006 -0.035233
v 0.592361 0.333006 -0.035233
v 0.592361 0.445625 -0.035233
v 0.367375 0.445625 -0.035233
v 0.592361 0.782976 -0.195470
v 0.367375 0.782976 -0.195470
v 0.367375 0.782976 -0.035233
v 0.592361 0.782976 -0.035233
v 0.367375 0.670357 -0.035233
v 0.367375 0.670357 -0.195470
v 0.254883 0.670484 -0.195470
v 0.254883 0.670484 -0.035233
v 0.592244 0.445498 -0.195470
v 0.592361 0.670357 -0.195470
v 0.704853 0.670484 -0.195470
v 0.704853 0.445498 -0.195470
v 0.254883 0.670484 -0.035233
v 0.254883 0.670484 -0.195470
v 0.254883 0.445498 -0.195470
v 0.254883 0.445498 -0.035233
v 0.592361 0.445625 -0.035233
v 0.592244 0.445498 -0.195470
v 0.704853 0.445498 -0.195470
v 0.704853 0.445498 -0.035233
v 0.592361 0.670357 -0.195470
v 0.592244 0.670484 -0.035233
v 0.704853 0.670484 -0.035233
v 0.704853 0.670484 -0.195470
v 0.254883 0.670484 -0.035233
v 0.254883 0.445498 -0.035233
v 0.367375 0.445625 -0.035233
v 0.367375 0.670357 -0.035233
v 0.254883 0.670484 -0.195470
v 0.367375 0.670357 -0.195470
v 0.367375 0.445625 -0.195470
v 0.254883 0.445498 -0.195470
v 0.254883 0.445498 -0.035233
v 0.254883 0.445498 -0.195470
v 0.367375 0.445625 -0.195470
v 0.367375 0.445625 -0.035233
v 0.704853 0.445498 -0.195470
v 0.704853 0.670484 -0.195470
v 0.704853 0.670484 -0.035233
v 0.704853 0.445498 -0.035233
v 0.592361 0.445625 -0.035233
v 0.592244 0.670484 -0.035233
v 0.367375 0.670357 -0.035233
v 0.367375 0.445625 -0.035233
v 0.367375 0.445625 -0.195470
v 0.367375 0.670357 -0.195470
v 0.592361 0.670357 -0.195470
v 0.592244 0.445498 -0.195470
v 0.704853 0.670484 -0.035233
v 0.592244 0.670484 -0.035233
v 0.592361 0.445625 -0.035233
v 0.704853 0.445498 -0.035233
v 0.367375 0.445625 -0.035233
v 0.367375 0.445625 -0.195470
v 0.367375 0.333006 -0.195470
v 0.367375 0.333006 -0.035233
vn -0.0000 -0.0000 1.0000
vn -0.0000 -0.0000 -1.0000
vn -0.0000 -1.0000 -0.0000
vn 1.0000 -0.0004 0.0005
vn 1.0000 -0.0008 0.0002
vn -1.0000 -0.0000 -0.0000
vn 1.0000 0.0004 -0.0004
vn 1.0000 0.0006 -0.0003
vn 1.0000 0.0005 -0.0004
vn -0.0000 1.0000 -0.0000
vn 0.0011 1.0000 -0.0000
vn -0.0007 -1.0000 0.0003
vn -0.0005 -1.0000 0.0004
vn -0.0004 -1.0000 0.0005
vn -0.0007 1.0000 -0.0003
vn -0.0005 1.0000 -0.0005
vn -0.0004 1.0000 -0.0005
vn 0.0011 -1.0000 -0.0000
vn 1.0000 -0.0000 -0.0000
vn 1.0000 -0.0005 0.0004
vn 1.0000 0.0004 -0.0005
vn -0.0005 -1.0000 0.0005
vt 0.381174 0.426545
vt 0.404791 0.426545
vt 0.404764 0.379388
vt 0.381174 0.379363
vt 0.609020 0.968862
vt 0.609020 0.921680
vt 0.585403 0.921680
vt 0.585403 0.968862
vt 0.921971 0.921654
vt 0.888368 0.921654
vt 0.888368 0.968835
vt 0.921971 0.968835
vt 0.550455 0.126693
vt 0.550428 0.160296
vt 0.574046 0.160296
vt 0.574046 0.126693
vt 0.644844 0.160296
vt 0.644844 0.126693
vt 0.621227 0.126693
vt 0.621227 0.160296
vt 0.888368 0.992426
vt 0.921971 0.992453
vt 0.679766 0.921680
vt 0.656148 0.921680
vt 0.656175 0.968837
vt 0.679766 0.968862
vt 0.475537 0.426545
vt 0.475537 0.379363
vt 0.451919 0.379363
vt 0.451919 0.426545
vt 0.659939 0.160296
vt 0.693542 0.160296
vt 0.693542 0.136706
vt 0.659939 0.136706
vt 0.608994 0.992453
vt 0.656175 0.992453
vt 0.693542 0.089524
vt 0.659939 0.089524
vt 0.216564 0.162978
vt 0.250167 0.163002
vt 0.250167 0.139387
vt 0.216564 0.139387
vt 0.250167 0.068615
vt 0.216564 0.068590
vt 0.216564 0.092206
vt 0.250167 0.092206
vt 0.404764 0.450135
vt 0.451946 0.450135
vt 0.608994 0.898090
vt 0.656175 0.898090
vt 0.693542 0.065933
vt 0.659939 0.065933
vt 0.404764 0.355772
vt 0.451946 0.355772
vt 0.921971 0.898036
vt 0.888368 0.898036
vt 0.095016 0.212916
vt 0.111419 0.212916
vt 0.111401 0.180163
vt 0.095016 0.180146
vt 0.063536 0.212898
vt 0.030766 0.212898
vt 0.030766 0.229302
vt 0.063536 0.229302
vt 0.807224 0.454933
vt 0.807224 0.431594
vt 0.774454 0.431594
vt 0.774454 0.454933
vt 0.881195 0.011246
vt 0.857856 0.011227
vt 0.857856 0.027631
vt 0.881195 0.027631
vt 0.857856 0.076805
vt 0.881195 0.076805
vt 0.881195 0.060401
vt 0.857856 0.060401
vt 0.758069 0.431594
vt 0.758050 0.454933
vt 0.030766 0.163761
vt 0.030766 0.180165
vt 0.063519 0.180146
vt 0.063536 0.163761
vt 0.160556 0.212916
vt 0.160556 0.180146
vt 0.144153 0.180146
vt 0.144153 0.212916
vt 0.969113 0.800055
vt 0.992452 0.800055
vt 0.992452 0.783670
vt 0.969113 0.783670
vt 0.079921 0.212916
vt 0.079921 0.180146
vt 0.992452 0.750900
vt 0.969113 0.750900
vt 0.969113 0.880708
vt 0.992453 0.880724
vt 0.992453 0.864322
vt 0.969113 0.864322
vt 0.992453 0.815167
vt 0.969113 0.815150
vt 0.969113 0.831552
vt 0.992453 0.831552
vt 0.111401 0.229302
vt 0.144171 0.229302
vt 0.014380 0.212916
vt 0.014381 0.180146
vt 0.992452 0.734515
vt 0.969113 0.734515
vt 0.111401 0.163761
vt 0.144171 0.163761
vt 0.823627 0.454933
vt 0.823627 0.431594
s 0
usemtl Material02
f 1/1/1 2/2/1 3/3/1
f 1/1/1 3/3/1 4/4/1
f 5/5/2 6/6/2 7/7/2
f 5/5/2 7/7/2 8/8/2
f 9/9/3 10/10/3 11/11/3
f 9/9/3 11/11/3 12/12/3
s 1
f 13/13/4 14/14/4 15/15/4
s 0
f 13/13/5 15/15/5 16/16/5
f 17/17/6 18/18/6 19/19/6
f 17/17/6 19/19/6 20/20/6
s 1
f 21/12/7 22/11/8 23/21/8
f 21/12/7 23/21/8 24/22/9
s 0
f 25/23/2 26/24/2 27/25/2
f 25/23/2 27/25/2 28/26/2
f 29/27/1 30/28/1 31/29/1
f 29/27/1 31/29/1 32/30/1
f 33/15/10 34/20/10 35/19/10
f 33/15/10 35/19/10 36/16/10
f 37/31/11 38/32/11 39/33/11
f 37/31/11 39/33/11 40/34/11
f 41/25/2 5/5/2 42/35/2
f 41/25/2 42/35/2 43/36/2
f 44/34/6 45/33/6 46/37/6
f 44/34/6 46/37/6 47/38/6
s 1
f 48/39/12 49/40/13 50/41/14
f 48/39/12 50/41/14 51/42/12
f 52/43/15 53/44/16 54/45/17
f 52/43/15 54/45/17 55/46/15
s 0
f 56/47/1 57/48/1 58/30/1
f 56/47/1 58/30/1 59/2/1
f 60/49/2 61/6/2 62/24/2
f 60/49/2 62/24/2 63/50/2
f 64/38/18 65/37/18 66/51/18
f 64/38/18 66/51/18 67/52/18
f 68/41/19 69/46/19 70/45/19
f 68/41/19 70/45/19 71/42/19
f 72/29/1 73/3/1 74/2/1
f 72/29/1 74/2/1 75/30/1
f 76/24/2 77/6/2 78/5/2
f 76/24/2 78/5/2 79/25/2
f 80/53/1 81/3/1 82/29/1
f 80/53/1 82/29/1 83/54/1
f 84/55/6 85/56/6 86/10/6
f 84/55/6 86/10/6 87/9/6
f 88/57/1 89/58/1 90/59/1
f 88/57/1 90/59/1 91/60/1
f 92/61/2 93/62/2 94/63/2
f 92/61/2 94/63/2 95/64/2
f 96/65/3 97/66/3 98/67/3
f 96/65/3 98/67/3 99/68/3
s 1
f 100/69/20 101/70/20 102/71/20
s 0
f 100/69/5 102/71/5 103/72/5
f 104/73/6 105/74/6 106/75/6
f 104/73/6 106/75/6 107/76/6
s 1
f 108/68/7 109/67/8 110/77/8
f 108/68/7 110/77/8 111/78/21
s 0
f 112/79/2 113/80/2 114/81/2
f 112/79/2 114/81/2 115/82/2
f 116/83/1 117/84/1 118/85/1
f 116/83/1 118/85/1 119/86/1
f 120/71/10 121/76/10 122/75/10
f 120/71/10 122/75/10 123/72/10
f 124/87/11 125/88/11 126/89/11
f 124/87/11 126/89/11 127/90/11
f 128/81/2 129/61/2 130/91/2
f 128/81/2 130/91/2 131/92/2
f 132/90/6 133/89/6 134/93/6
f 132/90/6 134/93/6 135/94/6
s 1
f 136/95/12 137/96/22 138/97/14
f 136/95/12 138/97/14 139/98/12
f 140/99/15 141/100/16 142/101/17
f 140/99/15 142/101/17 143/102/15
s 0
f 144/103/1 145/104/1 146/86/1
f 144/103/1 146/86/1 147/58/1
f 148/105/2 149/62/2 150/80/2
f 148/105/2 150/80/2 151/106/2
f 152/94/18 153/93/18 154/107/18
f 152/94/18 154/107/18 155/108/18
f 156/97/19 157/102/19 158/101/19
f 156/97/19 158/101/19 159/98/19
f 160/85/1 161/59/1 162/58/1
f 160/85/1 162/58/1 163/86/1
f 164/80/2 165/62/2 166/61/2
f 164/80/2 166/61/2 167/81/2
f 168/109/1 169/59/1 170/85/1
f 168/109/1 170/85/1 171/110/1
f 172/111/6 173/112/6 174/66/6
f 172/111/6 174/66/6 175/65/6
